<svg xmlns="http://www.w3.org/2000/svg" xmlns:xlink="http://www.w3.org/1999/xlink" viewBox="0 0 737 1004"><defs><style>.cls-1{fill:url(#linear-gradient);}.cls-2{fill:url(#linear-gradient-2);}.cls-3{fill:url(#linear-gradient-3);}.cls-12,.cls-4{fill:none;}.cls-4{stroke:#000;stroke-linecap:round;stroke-linejoin:round;stroke-width:3px;}.cls-5{fill:#0d6ae3;}.cls-6{fill:url(#linear-gradient-4);}.cls-7{fill:#01228d;}.cls-8{fill:url(#linear-gradient-5);}.cls-9{fill:url(#linear-gradient-6);}.cls-10{fill:url(#linear-gradient-7);}.cls-11{fill:url(#linear-gradient-8);}.cls-13{fill:url(#linear-gradient-9);}.cls-14{fill:url(#linear-gradient-10);}.cls-15{fill:url(#linear-gradient-11);}.cls-16{fill:url(#linear-gradient-12);}.cls-17{fill:url(#linear-gradient-13);}.cls-18{fill:url(#linear-gradient-14);}.cls-19{fill:url(#linear-gradient-15);}.cls-20{fill:url(#linear-gradient-16);}.cls-21{fill:url(#linear-gradient-17);}.cls-22{fill:url(#linear-gradient-18);}.cls-23{fill:url(#linear-gradient-19);}.cls-24{fill:url(#linear-gradient-20);}.cls-25{fill:#ffffa4;}.cls-26{fill:url(#linear-gradient-21);}.cls-27{fill:url(#linear-gradient-22);}.cls-28{fill:#33c9fc;}.cls-29{fill:url(#linear-gradient-23);}.cls-30{fill:url(#linear-gradient-24);}.cls-31{fill:#e79e7e;}.cls-32{fill:#0d2992;}.cls-33{fill:#0d31b5;}.cls-34{fill:url(#linear-gradient-25);}.cls-35{fill:url(#linear-gradient-26);}.cls-36{fill:url(#linear-gradient-27);}.cls-37{fill:url(#linear-gradient-28);}.cls-38,.cls-39{opacity:0.54;}.cls-38{fill:url(#linear-gradient-29);}.cls-39{fill:url(#linear-gradient-30);}.cls-40{fill:url(#linear-gradient-31);}.cls-41{fill:url(#linear-gradient-32);}.cls-42{fill:#014e77;}.cls-43{fill:url(#linear-gradient-33);}.cls-44{fill:#fff;}.cls-45{fill:url(#linear-gradient-34);}.cls-46{fill:url(#linear-gradient-35);}.cls-47{fill:#ccebf7;opacity:0.28;}.cls-48,.cls-49{opacity:0.51;}.cls-48{fill:url(#linear-gradient-36);}.cls-49{fill:url(#linear-gradient-37);}</style><linearGradient id="linear-gradient" x1="837" y1="246.7" x2="837" y2="362.5" gradientUnits="userSpaceOnUse"><stop offset="0" stop-color="#98e7fc"/><stop offset="1" stop-color="#ccebf7"/></linearGradient><linearGradient id="linear-gradient-2" x1="851.24" y1="319.98" x2="875.95" y2="319.98" gradientUnits="userSpaceOnUse"><stop offset="0" stop-color="#014eb8"/><stop offset="1" stop-color="#0d6ae3"/></linearGradient><linearGradient id="linear-gradient-3" x1="842.43" y1="307.49" x2="856.77" y2="307.49" xlink:href="#linear-gradient-2"/><linearGradient id="linear-gradient-4" x1="505.5" y1="304.26" x2="693.5" y2="304.26" gradientUnits="userSpaceOnUse"><stop offset="0" stop-color="#33c9fc"/><stop offset="1" stop-color="#0d6ae3"/></linearGradient><linearGradient id="linear-gradient-5" x1="1034.5" y1="586.45" x2="1208.95" y2="586.45" gradientUnits="userSpaceOnUse"><stop offset="0" stop-color="#fae3ae"/><stop offset="1" stop-color="#f5b292"/></linearGradient><linearGradient id="linear-gradient-6" x1="1018.5" y1="772.1" x2="1185.5" y2="772.1" gradientTransform="matrix(1, 0.01, -0.01, 1, 10.62, -13.48)" gradientUnits="userSpaceOnUse"><stop offset="0" stop-color="#98e7fc"/><stop offset="1" stop-color="#33c9fc"/></linearGradient><linearGradient id="linear-gradient-7" x1="535.5" y1="769.5" x2="706.5" y2="769.5" xlink:href="#linear-gradient-2"/><linearGradient id="linear-gradient-8" x1="934.5" y1="790" x2="1135.5" y2="790" xlink:href="#linear-gradient-5"/><linearGradient id="linear-gradient-9" x1="637.54" y1="228" x2="681.46" y2="228" gradientTransform="translate(632.03 -469.26) rotate(68.67)" xlink:href="#linear-gradient-5"/><linearGradient id="linear-gradient-10" x1="831.5" y1="593" x2="1045.5" y2="593" xlink:href="#linear-gradient-2"/><linearGradient id="linear-gradient-11" x1="881.5" y1="485.4" x2="1149.5" y2="485.4" xlink:href="#linear-gradient-2"/><linearGradient id="linear-gradient-12" x1="852.5" y1="641.67" x2="924.52" y2="641.67" gradientUnits="userSpaceOnUse"><stop offset="0" stop-color="#014eb8"/><stop offset="1" stop-color="#011d5c"/></linearGradient><linearGradient id="linear-gradient-13" x1="841.94" y1="615.51" x2="901.5" y2="615.51" xlink:href="#linear-gradient-12"/><linearGradient id="linear-gradient-14" x1="1036.5" y1="426" x2="1093.5" y2="426" xlink:href="#linear-gradient-12"/><linearGradient id="linear-gradient-15" x1="1015.5" y1="421" x2="1055.5" y2="421" xlink:href="#linear-gradient-12"/><linearGradient id="linear-gradient-16" x1="1076.62" y1="987.83" x2="1216.5" y2="987.83" xlink:href="#linear-gradient-6"/><linearGradient id="linear-gradient-17" x1="602.5" y1="986" x2="735.5" y2="986" xlink:href="#linear-gradient-2"/><linearGradient id="linear-gradient-18" x1="539.58" y1="185.24" x2="559.82" y2="185.24" xlink:href="#linear-gradient"/><linearGradient id="linear-gradient-19" x1="510.5" y1="605" x2="557.5" y2="605" gradientUnits="userSpaceOnUse"><stop offset="0" stop-color="#ffff42"/><stop offset="1" stop-color="#fff"/></linearGradient><linearGradient id="linear-gradient-20" x1="840.5" y1="118.5" x2="905.5" y2="118.5" gradientUnits="userSpaceOnUse"><stop offset="0" stop-color="#ffff59"/><stop offset="1" stop-color="#ffffd6"/></linearGradient><linearGradient id="linear-gradient-21" x1="823.5" y1="602.5" x2="823.5" y2="248.5" xlink:href="#linear-gradient"/><linearGradient id="linear-gradient-22" x1="676.61" y1="258.31" x2="748.5" y2="258.31" xlink:href="#linear-gradient-5"/><linearGradient id="linear-gradient-23" x1="637.26" y1="633.73" x2="781.39" y2="489.6" xlink:href="#linear-gradient-5"/><linearGradient id="linear-gradient-24" x1="720.38" y1="322.03" x2="720.38" y2="477.5" xlink:href="#linear-gradient"/><linearGradient id="linear-gradient-25" x1="670.27" y1="428.27" x2="767.5" y2="428.27" xlink:href="#linear-gradient-2"/><linearGradient id="linear-gradient-26" x1="667.45" y1="403.63" x2="756.21" y2="403.63" xlink:href="#linear-gradient-2"/><linearGradient id="linear-gradient-27" x1="756.91" y1="480.1" x2="981" y2="480.1" xlink:href="#linear-gradient-2"/><linearGradient id="linear-gradient-28" x1="770.64" y1="503.37" x2="962" y2="503.37" gradientUnits="userSpaceOnUse"><stop offset="0" stop-color="#014eb8"/><stop offset="1" stop-color="#012ca9"/></linearGradient><linearGradient id="linear-gradient-29" x1="1097.87" y1="994.25" x2="1216" y2="994.25" xlink:href="#linear-gradient-2"/><linearGradient id="linear-gradient-30" x1="1076.62" y1="789" x2="1185.5" y2="789" xlink:href="#linear-gradient-2"/><linearGradient id="linear-gradient-31" x1="877.51" y1="468.97" x2="877.51" y2="602.5" gradientUnits="userSpaceOnUse"><stop offset="0" stop-color="#014eb8"/><stop offset="1" stop-color="#012c5c"/></linearGradient><linearGradient id="linear-gradient-32" x1="947.36" y1="412.3" x2="947.36" y2="531.96" xlink:href="#linear-gradient-31"/><linearGradient id="linear-gradient-33" x1="670.84" y1="233.03" x2="717.14" y2="152.84" xlink:href="#linear-gradient-5"/><linearGradient id="linear-gradient-34" x1="612.71" y1="164" x2="720.18" y2="164" xlink:href="#linear-gradient-31"/><linearGradient id="linear-gradient-35" x1="715.99" y1="140.5" x2="613" y2="140.5" xlink:href="#linear-gradient-31"/><linearGradient id="linear-gradient-36" x1="543" y1="200.79" x2="761.92" y2="200.79" xlink:href="#linear-gradient-4"/><linearGradient id="linear-gradient-37" x1="542.58" y1="209.38" x2="740.95" y2="209.38" xlink:href="#linear-gradient-2"/></defs><title>belum support</title><g id="Layer_2" data-name="Layer 2"><path class="cls-1" d="M777.5,248.5s5-22,119,88l-18,26s-65-39-66-40S777.5,248.5,777.5,248.5Z" transform="translate(-481 -46)"/><path class="cls-2" d="M876,317s-7,16-11.45,18l-13.26-7.73s10.54-11.35,11.65-22.31Z" transform="translate(-481 -46)"/><path class="cls-3" d="M856.77,299.44s-9.64,22.6-11.2,20.08l-3.14-8.09a36.55,36.55,0,0,0,9.63-16.17Z" transform="translate(-481 -46)"/><path class="cls-4" d="M679.5,474.5s-4,18,98,3C777.5,477.5,752.5,460.5,679.5,474.5Z" transform="translate(-481 -46)"/><path class="cls-4" d="M679.5,474.5s-4,18,98,3C777.5,477.5,752.5,460.5,679.5,474.5Z" transform="translate(-481 -46)"/><path class="cls-5" d="M632.66,326.28,750.79,532.76a7.12,7.12,0,0,0,8.29,3.28c8.21-2.56,24.32-9.14,40.42-24.54l-117-174-11-18.6a5.69,5.69,0,0,0-5.9-2.7l-30.82,5.53A3.08,3.08,0,0,0,632.66,326.28Z" transform="translate(-481 -46)"/><path class="cls-6" d="M542.22,174.74c-18.82,10-36.72,39.44-36.72,83.76,0,51,54,55,54,55,26,4,34,61,34,61,23,124,100,15,100,15l-9-12s-62,99-77-9-76-49-84-101,25.2-76,25.2-76L550,185Z" transform="translate(-481 -46)"/><path class="cls-7" d="M1093.5,558.5s14,33,56-121C1149.5,437.5,1092.5,537.5,1093.5,558.5Z" transform="translate(-481 -46)"/><path class="cls-8" d="M1135.5,436.39l32.28,8.69a55.59,55.59,0,0,1,35.63,77.8L1100.5,736.5l-45-23s33-131,80-198l-101,11Z" transform="translate(-481 -46)"/><path class="cls-9" d="M1060,702s23.28,25.19,47.27,23.92l22.37,49.72,56.2,66.69-166.24-64Z" transform="translate(-481 -46)"/><polygon class="cls-10" points="704.5 805.5 706.5 795.5 539.5 733.5 535.5 744.5 704.5 805.5"/><path class="cls-7" d="M934.5,731.5s17,39,111-101c0,0-32.25,14-62.13,46Z" transform="translate(-481 -46)"/><path class="cls-11" d="M1004.5,621.5l24.16,27.1a119.23,119.23,0,0,1,24.54,43l82.3,257.88-53,9s-63-142-87-242l-61-69Z" transform="translate(-481 -46)"/><path class="cls-12" d="M694.5,175.5l18.55,18.55a7.28,7.28,0,0,1,1.57,8l-3.12,7.49" transform="translate(-481 -46)"/><path class="cls-12" d="M672.5,171.5a30.75,30.75,0,0,0-6,15" transform="translate(-481 -46)"/><path class="cls-12" d="M693.5,155.5s4-3,13-1" transform="translate(-481 -46)"/><ellipse class="cls-13" cx="659.5" cy="228" rx="18" ry="22.5" transform="translate(-273.74 713.42) rotate(-68.67)"/><line class="cls-12" x1="168.5" y1="181.5" x2="188.5" y2="184.23"/><path class="cls-14" d="M831.5,591.5l103,140s68-87,111-101l-148-176Z" transform="translate(-481 -46)"/><path class="cls-15" d="M975.56,412.3l173.94,26.2s-56,95-55,120l-144-31-69-73,81-42Z" transform="translate(-481 -46)"/><path class="cls-16" d="M852.5,628.5l34-29s25,31.42,37.54,55.17a4.15,4.15,0,0,1-.84,5l-24.33,22.76a5.28,5.28,0,0,1-7.88-.75Z" transform="translate(-481 -46)"/><path class="cls-17" d="M842.6,621.32c3.77,5.13,11.41,15.95,12.9,21.18,0,0,18-11,46-37l-14.16-15.93a3.13,3.13,0,0,0-4.12-.5l-39.79,27.41A3.42,3.42,0,0,0,842.6,621.32Z" transform="translate(-481 -46)"/><path class="cls-18" d="M1040.5,414.5l-4,14,57,9v-9.87a2.76,2.76,0,0,0-2.06-2.68C1084.41,423.08,1060.68,417,1040.5,414.5Z" transform="translate(-481 -46)"/><path class="cls-19" d="M1045.5,434.5l-30-8,5.78-15.69a5.06,5.06,0,0,1,4.75-3.31h29.47Z" transform="translate(-481 -46)"/><path class="cls-20" d="M1075.71,944.46s34.29,6.28,54.73-8.14L1170,993.15l44.43,47.54-132.7-25.61Z" transform="translate(-481 -46)"/><polygon class="cls-21" points="735.5 1002.5 735.5 993.5 602.5 969.5 602.5 980.5 735.5 1002.5"/><line class="cls-12" x1="633.5" y1="922.5" x2="671.5" y2="904.5"/><line class="cls-12" x1="640.5" y1="936.5" x2="680.5" y2="917.5"/><line class="cls-12" x1="620.5" y1="701.5" x2="640.5" y2="693.5"/><line class="cls-12" x1="624.5" y1="714.5" x2="646.5" y2="706.5"/><path class="cls-12" d="M722.48,634.6c-.08,1-29.62,24.45-29.62,24.45" transform="translate(-481 -46)"/><line class="cls-12" x1="223.46" y1="591.13" x2="193.04" y2="615.37"/><path class="cls-22" d="M542.57,175.5s9.42,10.16,2.18,19.58c0,0-4.38,10.42,3.69,14.42,0,0,28.95-26-5.5-48.51C542.94,161,535.64,169.5,542.57,175.5Z" transform="translate(-481 -46)"/><path class="cls-12" d="M546.5,192.11s4.17,7.22,9.08,8.31" transform="translate(-481 -46)"/><path class="cls-12" d="M547.48,187.46s8.38,7.89,10.7,7.47" transform="translate(-481 -46)"/><path class="cls-12" d="M545.69,180.21c-.19.29,6.7-4.52,12.25-3.11" transform="translate(-481 -46)"/><path class="cls-12" d="M554,170.62a26.29,26.29,0,0,0-10.34,6.22" transform="translate(-481 -46)"/><path class="cls-5" d="M632.5,322.5l96.72-79.4,27.37.3a9.84,9.84,0,0,1,9.68,9l1.23,14.12-76.18,60.77L666.5,316.5Z" transform="translate(-481 -46)"/><path class="cls-12" d="M517.41,205.06s9.71,4.94,11.9,14.19" transform="translate(-481 -46)"/><path class="cls-12" d="M514,212.15s8.46,4.35,11.46,13.35" transform="translate(-481 -46)"/><path class="cls-12" d="M523.36,265.79s-13.43,3.85-14.15,13.78" transform="translate(-481 -46)"/><path class="cls-12" d="M524.56,272.68s-9.36,3.19-12.71,12.5" transform="translate(-481 -46)"/><path class="cls-12" d="M559.5,313.5s8.25-7.61,7.12-15.3" transform="translate(-481 -46)"/><path class="cls-12" d="M566.73,316.16s7.82-6.83,7.3-14.74" transform="translate(-481 -46)"/><path class="cls-12" d="M590.25,358.73s9,1.52,15.15-2.85" transform="translate(-481 -46)"/><path class="cls-12" d="M591.88,365.7s9.91,1.47,14.77-2.87" transform="translate(-481 -46)"/><path class="cls-12" d="M629.25,417.47s4.74,5.89,0,16" transform="translate(-481 -46)"/><path class="cls-12" d="M636.5,418.94s5.18,10.42,1.59,14.49" transform="translate(-481 -46)"/><path class="cls-12" d="M499.5,406.5v32" transform="translate(-481 -46)"/><path class="cls-12" d="M482.5,422.5c2-1,34,0,34,0" transform="translate(-481 -46)"/><path class="cls-23" d="M533.5,572.5s0,34,24,30c0,0-24,8-24,35,0,0,0-27-23-35C510.5,602.5,529.5,605.5,533.5,572.5Z" transform="translate(-481 -46)"/><path class="cls-12" d="M815.26,720.11l7.45,22.28" transform="translate(-481 -46)"/><path class="cls-12" d="M807.15,735.21c1.15-1.16,23.67-7.92,23.67-7.92" transform="translate(-481 -46)"/><path class="cls-12" d="M1013.47,256.12,1004,268.38" transform="translate(-481 -46)"/><path class="cls-12" d="M1002.22,257.22c1.06.21,13,10.06,13,10.06" transform="translate(-481 -46)"/><path class="cls-12" d="M1093.36,136.26l-9.72,30.48" transform="translate(-481 -46)"/><path class="cls-12" d="M1072.3,146.34c2.21-.35,32.4,10.32,32.4,10.32" transform="translate(-481 -46)"/><path class="cls-24" d="M872.5,70.5s5,44,33,48c0,0-33,3-30,48,0,0-1-43-35-48C840.5,118.5,868.5,117.5,872.5,70.5Z" transform="translate(-481 -46)"/><path class="cls-25" d="M906.35,147.5s0,17.52,12.37,15.46c0,0-12.37,4.12-12.37,18,0,0,0-13.92-11.85-18C894.5,163,904.29,164.51,906.35,147.5Z" transform="translate(-481 -46)"/><path class="cls-12" d="M1145.33,283.71a21,21,0,1,1-9.83,17.79" transform="translate(-481 -46)"/><path class="cls-12" d="M684,736.54a15,15,0,1,1-17.71,22.68" transform="translate(-481 -46)"/><path class="cls-26" d="M666.5,331.5s33-58,109-83l36.64,45.8a131.05,131.05,0,0,0,36,31.15c32.86,19.26,97,57.88,132.36,86.05,0,0-62-1-146,191,0,0-66-78-122-220Z" transform="translate(-481 -46)"/><path class="cls-5" d="M848.5,325.5s-32-67-48-74c0,0-16-9-25-3L799,277.81l15.14,18.87S830.5,314.5,848.5,325.5Z" transform="translate(-481 -46)"/><path class="cls-27" d="M676.61,235.86,712.5,279.5s34,9,36-21l-15.18-18.92Z" transform="translate(-481 -46)"/><path class="cls-28" d="M679.5,474.5s-4,18,98,3C777.5,477.5,752.5,460.5,679.5,474.5Z" transform="translate(-481 -46)"/><path class="cls-29" d="M692.5,459.5l10,33s3,69,13,129L665.36,656a3.47,3.47,0,0,0,2.28,6.31l23-2.06a53.29,53.29,0,0,0,33.66-16.11L737.5,630.5l-3.67,17.29a3.21,3.21,0,0,0,5.89,2.34c6.27-10.28,13-24.39,10.78-34.63L742,450.19Z" transform="translate(-481 -46)"/><path class="cls-30" d="M679.5,474.5s6.7-1.34,16.79-2.69c22.51-3,61.87-6.05,81.21,5.69l-37-122s-46-55-74-24C666.5,331.5,653.5,338.5,679.5,474.5Z" transform="translate(-481 -46)"/><path class="cls-5" d="M674.49,319.84S730.2,331.5,763.85,432.5c0,0,16.2-82.65-68.58-135.82C695.27,296.68,674.49,308.18,674.49,319.84Z" transform="translate(-481 -46)"/><path class="cls-31" d="M681,240l12.23,16.06s31.68,11.27,47.72-7.4L733,240l-10,6-12.36,2.5-17.14-3.34Z" transform="translate(-481 -46)"/><path class="cls-32" d="M704,335s45.49,40.58,60.24,98.79l.85-18.86S762,360,704,335Z" transform="translate(-481 -46)"/><path class="cls-33" d="M799,278l15,19s17.14,19,33.57,27.5c0,0-9.28-20.26-17.93-34.88C829.64,289.62,813,278,799,278Z" transform="translate(-481 -46)"/><path class="cls-34" d="M674.05,444.65s36-18.36,93.45,0L759,419s-58.46-17.55-88.74,2.75Z" transform="translate(-481 -46)"/><path class="cls-35" d="M669,413s47.42-23.19,87.21-1.1l-3.41-9.71s-33.9-17.82-85.35,0Z" transform="translate(-481 -46)"/><path class="cls-36" d="M760,374s29-11,57,26,49.12-64.12,92.73-37.17C910,363,967,400,981,412c0,0-65,1-145,190,0,0-37.18-40.8-79.09-121.9,0,0,10.09-1.1,21.09-3.1l-14.15-44.5S770,411,760,374Z" transform="translate(-481 -46)"/><path class="cls-37" d="M770.64,505.57S823,544,842,491s56-14,66-61,54-14,54-14-73,47-126,186C836,602,809.29,570.14,770.64,505.57Z" transform="translate(-481 -46)"/><path class="cls-38" d="M1140.77,949.5l-34.88,8.55a3,3,0,0,0-1.83,4.39L1114,979l-14.56,7.71a3,3,0,0,0-1.32,3.81l13.38,30L1216,1039l-45-45Z" transform="translate(-481 -46)"/><path class="cls-39" d="M1110.38,736.49l-24.26,2.22a1.87,1.87,0,0,0-1.38,2.9L1097,760h-20.38l12.79,45.08,96.09,36.42L1127,775Z" transform="translate(-481 -46)"/><path class="cls-40" d="M919,480.1S881.19,523,839.59,602.5L836,602s32.34-84.06,73.67-133Z" transform="translate(-481 -46)"/><path class="cls-41" d="M971.23,532s-18.8-74,13.48-119l-9.15-.7S941,422,910,469l50.74,60.7Z" transform="translate(-481 -46)"/><polygon class="cls-42" points="418 637 444 614 422.27 643.05 418 637"/><path class="cls-31" d="M981,700s31-37.59,53.5-44.28l-11.42-12.53s-36.37,23.69-51.22,46.26Z" transform="translate(-481 -46)"/><path class="cls-31" d="M1107,520l14.31-3s21.55-52.34,42.12-73.19L1150,439S1120.5,489.79,1107,520Z" transform="translate(-481 -46)"/><path class="cls-31" d="M700.89,486.93,696,472s37-5.86,47-2.43l1.29,24.11S720.79,481.86,700.89,486.93Z" transform="translate(-481 -46)"/><path class="cls-43" d="M697.5,141.5s77,80,26,105c0,0-33,16-75-39l-3-47Z" transform="translate(-481 -46)"/><ellipse cx="684.5" cy="194.5" rx="5" ry="9" transform="translate(-486.54 322.31) rotate(-30)"/><ellipse cx="710.2" cy="175.38" rx="4.8" ry="9.18" transform="translate(-473.54 332.6) rotate(-30)"/><path class="cls-44" d="M724.71,221.07c2.72,4,.19,8.74-3.39,10.21s-8.7-.16-9.57-4.91c-.8-4.46-.18-8.75,3.4-10.21S722.17,217.33,724.71,221.07Z" transform="translate(-481 -46)"/><path class="cls-31" d="M697.14,177.93S735.57,186,712.79,206l2.39-5.21L713,194Z" transform="translate(-481 -46)"/><path class="cls-45" d="M637.5,225.5s-30-18-24-47a59.72,59.72,0,0,1,.85-12c2.47-15.06,11.67-39.27,45.15-42,0,0,7,3,13-22,0,0,7,11,6,22,0,0,45-5.42,41.48,44.79,0,0-13.39-17.67-17.43-22.23,0,0-32,2.44-53,28.44a90.71,90.71,0,0,1,8.41,43.35l-8.41-9.35S636.5,214.5,637.5,225.5Z" transform="translate(-481 -46)"/><path class="cls-46" d="M613,179s4-32,43-40l16-8,2,6s36-2.88,42,6.06c0,0-5-18.06-37-19.06,0,0,1-12-7-22,0,0-3,23-13,22C659,124,614,125,613,179Z" transform="translate(-481 -46)"/><circle class="cls-47" cx="185.5" cy="125.5" r="124"/><path class="cls-48" d="M543,161c.08-2.84.45-2.18.64-3.86,3.36-29.14,17.88-51.65,17.88-51.65C561,106,571,118,570,139s44,5,35,57,44-14,69,55c0,0,8,18,30,3s64.73-23.23,57-5c-14,33-73.9,45.49-73.9,45.49-57.9,9.48-98.27-26.27-98.27-26.27a119.29,119.29,0,0,1-40.16-60.09s9.81-6.23,11.07-20.18h0s1.66-10.15-9.64-21.45h0Z" transform="translate(-481 -46)"/><path class="cls-49" d="M548.31,209.54a102.22,102.22,0,0,0,8,19c22.86,42,56.69,54.91,56.69,54.91C692.58,317.32,741,270.67,741,270.67c-24.54-33.84-67.45,35.83-83.45-12.17s-33-18-58-27,7-54-25-60S553,123,553,123c-5.64,13-9.44,26.31-10.42,38,0,0,14.42,7.7,16.92,21.37,0,0,2.5,14.67-7.5,22.67Z" transform="translate(-481 -46)"/><path class="cls-44" d="M638.58,74.81h0a8.11,8.11,0,0,1,6.66-10c20.64-3.08,73.15-5.46,106.21,41.52A7.93,7.93,0,0,1,750.08,117h0a7.91,7.91,0,0,1-11.3-1.21c-11-14-41.06-44.37-90.73-35A8.16,8.16,0,0,1,638.58,74.81Z" transform="translate(-481 -46)"/><path class="cls-44" d="M754.55,129.61l.05,0a8.24,8.24,0,0,1,12.16,4,75,75,0,0,1,4,14.93,8.08,8.08,0,0,1-5.6,8.95h0a8.08,8.08,0,0,1-10.38-6.25,59.22,59.22,0,0,0-3.36-11.51A8.28,8.28,0,0,1,754.55,129.61Z" transform="translate(-481 -46)"/></g><g id="Layer_3" data-name="Layer 3"><ellipse class="cls-4" cx="684.5" cy="194.5" rx="5" ry="9" transform="translate(-486.54 322.31) rotate(-30)"/><ellipse class="cls-4" cx="710.2" cy="175.38" rx="4.8" ry="9.18" transform="translate(-473.54 332.6) rotate(-30)"/><path class="cls-4" d="M694.5,175.5l18.55,18.55a7.28,7.28,0,0,1,1.57,8l-3.12,7.49" transform="translate(-481 -46)"/><path class="cls-4" d="M724.71,221.07c2.72,4,.19,8.74-3.39,10.21s-8.7-.16-9.57-4.91c-.8-4.46-.18-8.75,3.4-10.21S722.17,217.33,724.71,221.07Z" transform="translate(-481 -46)"/><path class="cls-4" d="M702.55,147.06c16.26,18.56,63.81,78.43,21,99.44,0,0-28.17,13.66-65.59-27.65" transform="translate(-481 -46)"/><path class="cls-4" d="M672.5,171.5a30.75,30.75,0,0,0-6,15" transform="translate(-481 -46)"/><path class="cls-4" d="M693.5,155.5s4-3,13-1" transform="translate(-481 -46)"/><path class="cls-4" d="M679.47,238.23C675,246,663.64,248.94,653,244.77c-11.57-4.52-18-15.69-14.41-25,1.82-4.65,5.83-7.94,10.84-9.48" transform="translate(-481 -46)"/><line class="cls-4" x1="168.5" y1="181.5" x2="188.5" y2="184.23"/><path class="cls-4" d="M637.5,225.5s-30-18-24-47c0,0-3-50,46-54,0,0,7,3,13-22,0,0,7,11,6,22,0,0,45-5.42,41.48,44.79,0,0-13.39-17.67-17.43-22.23,0,0-32,2.44-53,28.44a90.71,90.71,0,0,1,8.41,43.35l-8.41-9.35S636.5,214.5,637.5,225.5Z" transform="translate(-481 -46)"/><path class="cls-4" d="M676.61,235.86,712.5,279.5s34,9,36-21l-12.36-15.4-2.82-3.52" transform="translate(-481 -46)"/><path class="cls-4" d="M645.24,49.32A124.15,124.15,0,0,1,666.5,47.5c3.4,0,6.78.14,10.11.41A124,124,0,1,1,584,264.07" transform="translate(-481 -46)"/><path class="cls-4" d="M608,62.17a124.33,124.33,0,0,1,14.61-6.66" transform="translate(-481 -46)"/><path class="cls-4" d="M695.5,296.5c5.66-5.6,9.34-11.27,17-17" transform="translate(-481 -46)"/><path class="cls-4" d="M666.5,331.5a103.81,103.81,0,0,1,7.55-12" transform="translate(-481 -46)"/><path class="cls-4" d="M748.5,258.5c8.34-4.09,17.27-6.8,27-10l36.64,45.8a131.05,131.05,0,0,0,36,31.15c32.86,19.26,97,57.88,132.36,86.05,0,0-62-1-146,191" transform="translate(-481 -46)"/><path class="cls-4" d="M679.5,474.5s70-14,98,3l-13.26-43.71" transform="translate(-481 -46)"/><path class="cls-4" d="M682.07,322.45a27.13,27.13,0,0,0-15.57,9.05" transform="translate(-481 -46)"/><path class="cls-4" d="M812.48,263c17.65,12.78,44.18,35.1,84,73.54l-8.77,12.66" transform="translate(-481 -46)"/><path class="cls-4" d="M934.5,731.5s68-87,111-101L909.15,468.35" transform="translate(-481 -46)"/><path class="cls-4" d="M1093.5,430.07l56,8.43s-56,95-55,120" transform="translate(-481 -46)"/><line class="cls-4" x1="494.56" y1="366.3" x2="537.36" y2="372.75"/><path class="cls-4" d="M895.36,611.1c8.42,11.31,20.91,28.91,28.68,43.57a4.15,4.15,0,0,1-.84,5l-24.33,22.76a5.28,5.28,0,0,1-7.88-.75" transform="translate(-481 -46)"/><path class="cls-4" d="M842.6,621.32c3.77,5.13,11.41,15.95,12.9,21.18,0,0,18-11,46-37l-14.16-15.93a3.13,3.13,0,0,0-4.12-.5l-39.79,27.41A3.42,3.42,0,0,0,842.6,621.32Z" transform="translate(-481 -46)"/><path class="cls-4" d="M1093.5,437.5v-9.87a2.76,2.76,0,0,0-2.06-2.68c-5.7-1.51-22.34-5.78-39.19-8.68" transform="translate(-481 -46)"/><path class="cls-4" d="M1045.5,434.5l-30-8,5.78-15.69a5.06,5.06,0,0,1,4.75-3.31h29.47Z" transform="translate(-481 -46)"/><path class="cls-4" d="M1031.09,651.43q6.89-9.73,14.41-20.93s-32.25,14-62.13,46l-48.87,55s7.82,23,51-23" transform="translate(-481 -46)"/><path class="cls-4" d="M1148.5,439.5s-54,95-54,118c0,0,7.67,19.84,30-39" transform="translate(-481 -46)"/><path class="cls-4" d="M1135.5,949.5" transform="translate(-481 -46)"/><path class="cls-4" d="M1023.08,642.34l5.58,6.26a119.23,119.23,0,0,1,24.54,43l78,244.54" transform="translate(-481 -46)"/><path class="cls-4" d="M1148.5,439.5l19.28,5.58a55.59,55.59,0,0,1,35.63,77.8l-97.88,203.18" transform="translate(-481 -46)"/><path class="cls-4" d="M1076.62,945s34.37,5.86,54.62-8.8l40.26,56.34,45,47-133-24" transform="translate(-481 -46)"/><polygon class="cls-4" points="735.5 1002.5 735.5 993.5 602.5 969.5 602.5 980.5 735.5 1002.5"/><line class="cls-4" x1="633.5" y1="922.5" x2="671.5" y2="904.5"/><line class="cls-4" x1="640.5" y1="936.5" x2="680.5" y2="917.5"/><path class="cls-4" d="M1057.12,703.91l2-3.93s22.43,27.64,46.4,26.08l23,49.44,57,66-95.82-35.57" transform="translate(-481 -46)"/><polyline class="cls-4" points="612.9 773.16 702.5 805.5 704.5 795.5 608.68 759.93"/><line class="cls-4" x1="620.5" y1="701.5" x2="640.5" y2="693.5"/><line class="cls-4" x1="624.5" y1="714.5" x2="646.5" y2="706.5"/><path class="cls-4" d="M715.5,621.5,665.36,656a3.47,3.47,0,0,0,2.28,6.31l23-2.06a53.29,53.29,0,0,0,33.66-16.11L737.5,630.5l-3.67,17.29a3.21,3.21,0,0,0,5.89,2.34c6.27-10.28,13-24.39,10.78-34.63L743,469.3" transform="translate(-481 -46)"/><path class="cls-4" d="M645.24,64.81c20.64-3.08,73.15-5.46,106.21,41.52A7.93,7.93,0,0,1,750.08,117h0" transform="translate(-481 -46)"/><path class="cls-4" d="M754.55,129.61l.05,0a8.24,8.24,0,0,1,12.16,4,75,75,0,0,1,4,14.93,8.08,8.08,0,0,1-5.6,8.95h0" transform="translate(-481 -46)"/><path class="cls-4" d="M542.57,175.5s9.42,10.16,2.18,19.58c0,0-4.38,10.42,3.69,14.42,0,0,28.95-26-5.5-48.51" transform="translate(-481 -46)"/><path class="cls-4" d="M546.5,192.11s4.17,7.22,9.08,8.31" transform="translate(-481 -46)"/><path class="cls-4" d="M547.48,187.46s8.38,7.89,10.7,7.47" transform="translate(-481 -46)"/><path class="cls-4" d="M545.69,180.21c-.19.29,6.7-4.52,12.25-3.11" transform="translate(-481 -46)"/><path class="cls-4" d="M543.64,176.84A26.29,26.29,0,0,1,554,170.62" transform="translate(-481 -46)"/><path class="cls-4" d="M674.49,319.84S730.2,331.5,763.85,432.5c0,0,16.2-82.65-68.58-135.82C695.27,296.68,674.49,308.18,674.49,319.84Z" transform="translate(-481 -46)"/><path class="cls-4" d="M848.5,325.5s-32-67-48-74c0,0-16-9-25-3L799,277.81l15.14,18.87S830.5,314.5,848.5,325.5Z" transform="translate(-481 -46)"/><path class="cls-4" d="M671.51,319.9a5.69,5.69,0,0,0-5.9-2.7l-30.82,5.53a3.08,3.08,0,0,0-2.13,4.55" transform="translate(-481 -46)"/><path class="cls-4" d="M745.84,525.11l4.95,8.65a7.12,7.12,0,0,0,8.29,3.28A97.7,97.7,0,0,0,782.4,526" transform="translate(-481 -46)"/><path class="cls-4" d="M736.5,243.5l19.09-.1c5,.06,9.47,3.06,9.91,8.1" transform="translate(-481 -46)"/><line class="cls-4" x1="152.5" y1="277.5" x2="219.96" y2="219.47"/><path class="cls-4" d="M668.5,416.5c-24.61,21.75-60.33,37.1-75-42,0,0-8-57-34-61,0,0-54-4-54-55" transform="translate(-481 -46)"/><path class="cls-4" d="M648.77,415.21c6.4-3.52,11.29-7.89,16.73-13.71" transform="translate(-481 -46)"/><path class="cls-4" d="M543.51,196.49c-9.45,8.94-25.81,33.34-20,71,6.13,39.81,43.32,14.56,67.15,49" transform="translate(-481 -46)"/><path class="cls-4" d="M517.41,205.06s8.9,3.19,11.09,12.44" transform="translate(-481 -46)"/><path class="cls-4" d="M514,212.15s8.46,4.35,11.46,13.35" transform="translate(-481 -46)"/><path class="cls-4" d="M523.36,265.79s-13.43,3.85-14.15,13.78" transform="translate(-481 -46)"/><path class="cls-4" d="M524.56,272.68s-9.36,3.19-12.71,12.5" transform="translate(-481 -46)"/><path class="cls-4" d="M559.5,313.5s8.25-7.61,7.12-15.3" transform="translate(-481 -46)"/><path class="cls-4" d="M566.73,316.16s7.82-6.83,7.3-14.74" transform="translate(-481 -46)"/><path class="cls-4" d="M590.25,358.73s9,1.52,15.15-2.85" transform="translate(-481 -46)"/><path class="cls-4" d="M591.88,365.7s9.91,1.47,14.77-2.87" transform="translate(-481 -46)"/><path class="cls-4" d="M629.25,417.47s4.74,5.89,0,16" transform="translate(-481 -46)"/><path class="cls-4" d="M636.5,418.94s5.18,10.42,1.59,14.49" transform="translate(-481 -46)"/><path class="cls-4" d="M499.5,406.5v32" transform="translate(-481 -46)"/><path class="cls-4" d="M482.5,422.5c2-1,34,0,34,0" transform="translate(-481 -46)"/><path class="cls-4" d="M533.5,572.5s0,34,24,30c0,0-24,8-24,35,0,0,0-27-23-35C510.5,602.5,529.5,605.5,533.5,572.5Z" transform="translate(-481 -46)"/><path class="cls-4" d="M815.26,720.11l7.45,22.28" transform="translate(-481 -46)"/><path class="cls-4" d="M807.15,735.21c1.15-1.16,23.67-7.92,23.67-7.92" transform="translate(-481 -46)"/><path class="cls-4" d="M1013.47,256.12,1004,268.38" transform="translate(-481 -46)"/><path class="cls-4" d="M1002.22,257.22c1.06.21,13,10.06,13,10.06" transform="translate(-481 -46)"/><path class="cls-4" d="M1093.36,136.26l-9.72,30.48" transform="translate(-481 -46)"/><path class="cls-4" d="M1072.3,146.34c2.21-.35,32.4,10.32,32.4,10.32" transform="translate(-481 -46)"/><path class="cls-4" d="M872.5,70.5s5,44,33,48c0,0-33,3-30,48,0,0-1-43-35-48C840.5,118.5,868.5,117.5,872.5,70.5Z" transform="translate(-481 -46)"/><path class="cls-4" d="M906.35,147.5s0,17.52,12.37,15.46c0,0-12.37,4.12-12.37,18,0,0,0-13.92-11.85-18C894.5,163,904.29,164.51,906.35,147.5Z" transform="translate(-481 -46)"/><path class="cls-4" d="M1145.33,283.71a21,21,0,1,1-9.83,17.79" transform="translate(-481 -46)"/><path class="cls-4" d="M684,736.54a15,15,0,1,1-17.71,22.68" transform="translate(-481 -46)"/><path class="cls-4" d="M743.6,481.72c9.75-1,21-2.32,33.9-4.22,0,0-25-17-98-3,0,0-2.59,6.13,19,8" transform="translate(-481 -46)"/></g></svg>