<svg xmlns="http://www.w3.org/2000/svg" xmlns:xlink="http://www.w3.org/1999/xlink" viewBox="0 0 1727 861.1"><defs><style>.cls-1{fill:url(#linear-gradient);}.cls-2{fill:url(#linear-gradient-2);}.cls-3{fill:#3386fc;opacity:0.64;}.cls-4{fill:url(#linear-gradient-3);}.cls-17,.cls-18,.cls-5,.cls-8{fill:none;}.cls-5{stroke:#000;stroke-width:5px;}.cls-17,.cls-18,.cls-5{stroke-linecap:round;stroke-linejoin:round;}.cls-6{fill:url(#linear-gradient-4);}.cls-7{fill:url(#linear-gradient-5);}.cls-9{fill:#33abfc;opacity:0.71;}.cls-10{fill:url(#linear-gradient-6);}.cls-11{fill:#ffdfa3;}.cls-12{fill:url(#linear-gradient-7);}.cls-13{fill:#fdb778;}.cls-14{fill:url(#linear-gradient-8);}.cls-15{fill:url(#linear-gradient-9);}.cls-16{opacity:0.46;fill:url(#linear-gradient-10);}.cls-17,.cls-18{stroke:#2940e2;}.cls-17{stroke-width:14px;}.cls-18{stroke-width:8px;}.cls-19{fill:#33c9fc;}.cls-20{fill:#98e7fc;}.cls-21{fill:#1133bf;}.cls-22{fill:#012c5c;}</style><linearGradient id="linear-gradient" x1="252.24" y1="298.17" x2="627.13" y2="947.5" gradientUnits="userSpaceOnUse"><stop offset="0" stop-color="#0d6ae3"/><stop offset="1" stop-color="#0100b9"/></linearGradient><linearGradient id="linear-gradient-2" x1="1282.29" y1="273.74" x2="1596.43" y2="817.84" gradientUnits="userSpaceOnUse"><stop offset="0" stop-color="#0d6ae3"/><stop offset="0.18" stop-color="#0c64e1"/><stop offset="0.42" stop-color="#0a53da"/><stop offset="0.69" stop-color="#0737cf"/><stop offset="0.99" stop-color="#0310bf"/><stop offset="1" stop-color="#030fbf"/></linearGradient><linearGradient id="linear-gradient-3" x1="715.68" y1="404.12" x2="424.75" y2="404.12" gradientUnits="userSpaceOnUse"><stop offset="0" stop-color="#012c5c"/><stop offset="1" stop-color="#0100b9"/></linearGradient><linearGradient id="linear-gradient-4" x1="800.07" y1="231.08" x2="1162.84" y2="859.42" gradientUnits="userSpaceOnUse"><stop offset="0" stop-color="#0d6ae3"/><stop offset="1" stop-color="#0314c1"/></linearGradient><linearGradient id="linear-gradient-5" x1="993.98" y1="856.64" x2="993.98" y2="386.5" gradientUnits="userSpaceOnUse"><stop offset="0" stop-color="#98e7fc"/><stop offset="1" stop-color="#33c9fc"/></linearGradient><linearGradient id="linear-gradient-6" x1="907.17" y1="367.05" x2="1085.83" y2="263.89" gradientUnits="userSpaceOnUse"><stop offset="0" stop-color="#ffdfa3"/><stop offset="1" stop-color="#ec9c7b"/></linearGradient><linearGradient id="linear-gradient-7" x1="1111.5" y1="240.73" x2="810.98" y2="240.73" gradientUnits="userSpaceOnUse"><stop offset="0" stop-color="#012c5c"/><stop offset="1" stop-color="#014eb8"/></linearGradient><linearGradient id="linear-gradient-8" x1="924.53" y1="459.31" x2="1078.11" y2="547.98" xlink:href="#linear-gradient-6"/><linearGradient id="linear-gradient-9" x1="1013.5" y1="697.75" x2="1208.24" y2="697.75" xlink:href="#linear-gradient-5"/><linearGradient id="linear-gradient-10" x1="835.03" y1="195.5" x2="1112" y2="195.5" gradientUnits="userSpaceOnUse"><stop offset="0" stop-color="#012c5c"/><stop offset="1" stop-color="#010048"/></linearGradient></defs><title>404</title><g id="Layer_9" data-name="Layer 9"><path class="cls-1" d="M485.5,163.5l-368,440H475.27l75.23,323h113ZM340,493.5l85.5-102,25,102Z" transform="translate(-115 -69.9)"/><path class="cls-2" d="M1471.5,164.5l-178,763h113l75.23-323H1839.5Zm60,228,85.5,102H1506.5Z" transform="translate(-115 -69.9)"/><path class="cls-3" d="M405.61,603.08c-57.83-89.89-114.8-131.7-162.34-149.52l-72.6,86.37c61.25,8.61,98.32,33.54,126.59,65.73" transform="translate(-115 -69.9)"/><path class="cls-3" d="M631.92,789c-42.2-19.64-86.92-39.23-130.8-74.46l27.33,117.3c59,24.64,101.58,54.21,132.24,83.58" transform="translate(-115 -69.9)"/><path class="cls-3" d="M549.4,437.43A221,221,0,0,1,537,405.5C513.25,328,470,275.18,422.09,239.17l-70.91,84.92C394.43,360,437.73,411,475.7,483.28,508.49,545.73,545.09,578.5,585.31,596" transform="translate(-115 -69.9)"/><path class="cls-3" d="M1360.89,928a428.23,428.23,0,0,1-58.38-39.14L1294,928" transform="translate(-115 -69.9)"/><path class="cls-3" d="M1380,557c32.42,33.27,64.07,62.78,93.84,81.38l-23.18,91.9c-34.65-21.62-66.51-47.43-94.13-73Z" transform="translate(-115 -69.9)"/><path class="cls-3" d="M1472,165l-18.71,74.75C1504.06,307.19,1530.37,397.12,1649,441c33.89,12.53,62.87,26.67,87.65,41.62" transform="translate(-115 -69.9)"/><path class="cls-4" d="M715.68,568.13C610.5,504.61,379.39,351.23,432.59,259.07c38.81-67.24,174.89,57.31,281.29,171.76" transform="translate(-115 -69.9)"/><path class="cls-5" d="M432.06,259.45c39.36-68.18,176,57.36,281.27,170.94" transform="translate(-115 -69.9)"/><line class="cls-5" x1="381.85" y1="243.89" x2="625.05" y2="460.06"/><line class="cls-5" x1="413.48" y1="239.23" x2="439.43" y2="295.07"/><line class="cls-5" x1="442.01" y1="255.77" x2="462.61" y2="315.68"/><line class="cls-5" x1="473.71" y1="367.17" x2="529.76" y2="375.36"/><line class="cls-5" x1="497.03" y1="387.6" x2="548.84" y2="392.32"/><path class="cls-6" d="M981.45,163.5c-164.71,0-298.23,170.92-298.23,381.75S816.74,927,981.45,927s298.24-170.92,298.24-381.75S1146.16,163.5,981.45,163.5Zm-.18,632c-107.82,0-195.22-111.88-195.22-249.89s87.4-249.88,195.22-249.88,195.22,111.87,195.22,249.88S1089.08,795.5,981.27,795.5Z" transform="translate(-115 -69.9)"/><path class="cls-3" d="M786.17,536.67c-37-4.09-71.62-6.63-102.83-11.88l-.4,8.55a371.63,371.63,0,0,0,5.4,82.72h0c32.2,1.62,66.11,1.39,101.67,4.27" transform="translate(-115 -69.9)"/><path class="cls-3" d="M873.13,338.85c-48.56-1.53-93.7-1.35-135.24-13.94l3-5.87a267.36,267.36,0,0,1,54.74-72.64L799.3,243c119.08,24.76,293.82-3.89,463.52,178.18l13.07,56.17a131.92,131.92,0,0,1,3.29,35.82l-2.68,59.43C1260.13,552.81,1251,540,1251,540c-31.43-41.12-62.12-73.73-92-99.61,0,0-51-115.39-112-123.39S873.13,338.85,873.13,338.85Z" transform="translate(-115 -69.9)"/><path class="cls-3" d="M794.56,842.76S964,845,1135,873c0,0-106,81-204,48.56C858.7,897.61,849.11,895.52,794.56,842.76Z" transform="translate(-115 -69.9)"/></g><g id="Layer_10" data-name="Layer 10"><path class="cls-5" d="M1053.86,314.58c71.87,36.87,122.63,126.86,122.63,232,0,138-87.41,249.89-195.22,249.89-94.34,0-173-85.66-191.26-199.53" transform="translate(-115 -69.9)"/><path class="cls-5" d="M1145.2,227.14c81,68.25,134.49,185.69,134.49,319.11,0,210.83-133.53,381.75-298.24,381.75a239.91,239.91,0,0,1-99.4-21.72" transform="translate(-115 -69.9)"/><polyline class="cls-5" points="435.5 857.6 548.5 857.6 439.5 389.6"/><line class="cls-5" x1="2.5" y1="534.6" x2="360.27" y2="534.6"/><line class="cls-5" x1="390.5" y1="179.6" x2="370.5" y2="94.6"/><polyline class="cls-5" points="225 424.6 335.5 424.6 310.5 322.6"/><polyline class="cls-5" points="1356.5 95.6 1724.5 535.6 1366.73 535.6 1291.5 858.6 1178.5 858.6"/><polyline class="cls-5" points="1416.5 323.6 1502 425.6 1391.5 425.6"/></g><g id="Layer_2" data-name="Layer 2"><path class="cls-7" d="M1192.5,596.5c-16-119-132-173-132-173l-99-37-24.74,22.16C903.93,426.81,778,502,781.5,585.5c4,96-7,268,96,271s251-44,251-44l-.56-1.66,78.51,9.56S1208.5,715.5,1192.5,596.5Z" transform="translate(-115 -69.9)"/><circle class="cls-8" cx="1172.23" cy="43.51" r="43.5"/><line class="cls-8" x1="1091.5" y1="135.6" x2="1091.5" y2="231.6"/><circle class="cls-8" cx="1091.5" cy="257.6" r="10"/><path class="cls-9" d="M896,434l39.6-25.14,132.12,18.69s53,30.8,74.15,59.62,37.49,44.83,48.81,94.33S1211,804,1211,804s1.35-6.15-8-43c-70-276-197-244-197-244s-54.47-35.91-85.65-69.22C914,441,899,438,896,434Z" transform="translate(-115 -69.9)"/><path class="cls-10" d="M1061.5,234.5s62,211-37,218c-95.77,6.77-125-112-125-112l-12-102,45-46,115,5Z" transform="translate(-115 -69.9)"/><ellipse class="cls-11" cx="893" cy="376" rx="40.5" ry="48.5" transform="translate(-33.14 836.08) rotate(-55.99)"/><ellipse cx="855" cy="271.06" rx="11.5" ry="19.46"/><ellipse cx="921" cy="232.06" rx="11.5" ry="19.46"/><path class="cls-8" d="M1012.5,391.5l3.92-.78a25.83,25.83,0,0,0,17-11.86h0a16.88,16.88,0,0,0,.38-16.94L1006.5,312.5" transform="translate(-115 -69.9)"/><path class="cls-8" d="M1042.5,398.5s-14,4-18,25" transform="translate(-115 -69.9)"/><path class="cls-8" d="M1009.5,265.5s10-35,33-19" transform="translate(-115 -69.9)"/><path class="cls-8" d="M970.5,282.5s-3,20-33,27" transform="translate(-115 -69.9)"/><path class="cls-12" d="M898.5,253.5s24.28,62.85,7.64,106.92l-13.14-27S864.35,328.5,850.92,352c0,0-7.57,15.4,0,34.95,0,0-63.42-63.45-30.42-129.45,0,0-22-53,44-95s80-68,80-68,5,28-16,44c0,0,63-22,107,17s76,28,76,28-14,17-31,18c0,0,32,54-5.49,94.5,0,0-8.43-45.21-15-65.36,0,0-14.54.86-78.54-18.14,0,0,7,12,25,22C1006.5,234.5,964.5,261.5,898.5,253.5Z" transform="translate(-115 -69.9)"/><line class="cls-8" x1="755.5" y1="299.6" x2="803.68" y2="317.05"/><path class="cls-13" d="M898.5,253.5s84,11,130-19c0,0,20.14,10.29,36.57,12.64l-5.57-16.64a551.74,551.74,0,0,1-78-18,100.44,100.44,0,0,0,25,22S960.5,261.5,898.5,253.5Z" transform="translate(-115 -69.9)"/><path class="cls-13" d="M1034,488.5l-5.35-30.07c-.86-4.86,5.06-8.3,9.49-5.51h0a21.72,21.72,0,0,1,8.45,9.67c5.45,12.54,16.73,41.31,12.53,55.91Z" transform="translate(-115 -69.9)"/><path class="cls-9" d="M899,596s7,120,0,153l30-6S921,656,899,596Z" transform="translate(-115 -69.9)"/><path class="cls-9" d="M1033,728s16,10,21,21,15.29,52.83,36.64,74.41l17.93-4.55S1084.86,791,1058.43,725Z" transform="translate(-115 -69.9)"/><path class="cls-13" d="M1006,312s38,54,30,64C1036,376,1064,362,1006,312Z" transform="translate(-115 -69.9)"/><path class="cls-14" d="M1075.5,552.5s-5-39-46-80L970.34,408a10.75,10.75,0,0,0-14.74-1.12h0a10.75,10.75,0,0,0-1.77,14.87L999.5,479.5s-13,6-15,14c0,0-11,10-11,20,0,0-37,28,53,83Z" transform="translate(-115 -69.9)"/><path class="cls-15" d="M1080.5,539.5l-67,52.74s76,282.23,154,262.8,20-116.59,20-116.59Z" transform="translate(-115 -69.9)"/><path class="cls-16" d="M835,188s68.45,36.53,126.21,5.78S1060,230,1060,230l16,66s37-35,5-94c0,0,14-2,31-18,0,0-38,10.37-86-35.82,0,0-39-29.18-97-9.18,0,0,20-19,16-44,0,0-39,45-71.89,61.92C853.9,166.8,835,188,835,188Z" transform="translate(-115 -69.9)"/></g><g id="Layer_4" data-name="Layer 4"><ellipse class="cls-5" cx="855" cy="271.06" rx="11.5" ry="19.46"/><ellipse class="cls-5" cx="921" cy="232.06" rx="11.5" ry="19.46"/><path class="cls-5" d="M1006.5,312.5l27.27,49.42a16.88,16.88,0,0,1-.38,16.94h0a25.83,25.83,0,0,1-17,11.86l-3.92.78" transform="translate(-115 -69.9)"/><path class="cls-5" d="M1042.5,398.5s-14,4-18,25" transform="translate(-115 -69.9)"/><path class="cls-5" d="M1061.5,234.5s39.46,134.3,5.15,192.16a53.15,53.15,0,0,1-15.32,16.88" transform="translate(-115 -69.9)"/><path class="cls-5" d="M1009.5,265.5s10-35,33-19" transform="translate(-115 -69.9)"/><path class="cls-5" d="M970.5,282.5s-3,20-33,27" transform="translate(-115 -69.9)"/><path class="cls-5" d="M931,406c-13.38,15.91-39.68,17.72-60.67,3.55A54.83,54.83,0,0,1,850.92,387c-5.8-12.81-5.61-27,1.88-38.08,8.46-12.55,24.1-17.93,40.2-15.44" transform="translate(-115 -69.9)"/><path class="cls-5" d="M906.14,360.42l-13.14-27S864.35,328.5,850.92,352c0,0-7.57,15.4,0,34.95,0,0-63.42-63.45-30.42-129.45" transform="translate(-115 -69.9)"/><path class="cls-5" d="M1111.5,183.5s-14,17-31,18c0,0,32,54-5.49,94.5,0,0-8.43-45.21-15-65.36,0,0-14.54.86-78.54-18.14,0,0,7,12,25,22,0,0-42,27-108,19" transform="translate(-115 -69.9)"/><path class="cls-5" d="M944.5,94.5s5,28-16,44" transform="translate(-115 -69.9)"/><path class="cls-5" d="M1073.81,544.76c-3.6-13.37-14.33-42.28-44.31-72.26L970.34,408a10.75,10.75,0,0,0-14.74-1.12h0a10.75,10.75,0,0,0-1.77,14.87L999.5,479.5s-13,6-15,14c0,0-11,10-11,20,0,0-8.52,6.45-7.44,19.23" transform="translate(-115 -69.9)"/><path class="cls-5" d="M1029.5,472.5l-.89-14.07c-.86-4.86,5.06-8.3,9.49-5.51h0a21.72,21.72,0,0,1,8.45,9.67c4.73,10.89,13.85,34,13.44,49.46" transform="translate(-115 -69.9)"/><line class="cls-5" x1="755.5" y1="299.6" x2="803.68" y2="317.05"/><path class="cls-5" d="M1080.5,539.5l-67,52.74s76,282.23,154,262.8,25-119.54,25-119.54Z" transform="translate(-115 -69.9)"/><path class="cls-5" d="M870.5,760.5c20.17-15.84,129-29.1,188.37-35.27" transform="translate(-115 -69.9)"/><path class="cls-5" d="M899.5,596.5c4,63.74,2.81,123.54,0,150" transform="translate(-115 -69.9)"/><path class="cls-5" d="M1066.65,426.66c24.18,13.12,112.08,67.39,125.85,169.84,10.55,78.44,15.38,142.82,16,183" transform="translate(-115 -69.9)"/><path class="cls-17" d="M1273.57,102.9a43.51,43.51,0,0,1,59.65,61.74c-14.33,19.29-42.47,24.51-61.76,10.19" transform="translate(-115 -69.9)"/><line class="cls-17" x1="1156.46" y1="104.93" x2="1125.35" y2="145.98"/><circle class="cls-18" cx="1110.8" cy="165.99" r="8.75"/></g><g id="Layer_6" data-name="Layer 6"><path class="cls-19" d="M684.83,347.45s-24-116.65-89.63-136.65S684.83,347.45,684.83,347.45Z" transform="translate(-115 -69.9)"/><path class="cls-8" d="M630,264.32s17.08,18.54,54.68,82.25" transform="translate(-115 -69.9)"/><path class="cls-5" d="M683.93,345.93S660,229.28,594.31,209.28" transform="translate(-115 -69.9)"/><path class="cls-5" d="M629.06,262.8s17.09,18.55,54.69,82.25" transform="translate(-115 -69.9)"/><path class="cls-8" d="M1383.75,452.06s-101.52,10.67-162,49.93" transform="translate(-115 -69.9)"/><path class="cls-20" d="M1302.7,468.29S1480.19,486,1451,429.89,1302.7,468.29,1302.7,468.29Z" transform="translate(-115 -69.9)"/><path class="cls-8" d="M1376.72,330.7s-118.13,87.17-164.56,179.91" transform="translate(-115 -69.9)"/><path class="cls-21" d="M1444,254.21c-77-48.38-156,155.65-156,155.65s233-107.27,156-155.65" transform="translate(-115 -69.9)"/><path class="cls-5" d="M1383.75,452.06s-53.68,5.36-107.25,24.44" transform="translate(-115 -69.9)"/><path class="cls-5" d="M1302.7,468.29S1480.19,486,1451,429.89" transform="translate(-115 -69.9)"/><path class="cls-5" d="M1376.72,330.7S1317.9,374.1,1267,432.24" transform="translate(-115 -69.9)"/><path class="cls-5" d="M640.37,543.5" transform="translate(-115 -69.9)"/><path class="cls-5" d="M1444,254.21c-77-48.38-156,155.65-156,155.65" transform="translate(-115 -69.9)"/><path class="cls-22" d="M1489.57,755.46s102,151.17,206.65,141.15S1489.57,755.46,1489.57,755.46Z" transform="translate(-115 -69.9)"/><path class="cls-8" d="M1615.78,841.13s-35-16.28-125.43-84.52" transform="translate(-115 -69.9)"/><path class="cls-5" d="M1491.72,757.09s102,151.16,206.65,141.14" transform="translate(-115 -69.9)"/><path class="cls-5" d="M1617.93,842.76s-35-16.29-125.43-84.53" transform="translate(-115 -69.9)"/><path class="cls-8" d="M379.66,768.79S488.31,723,542,659.3" transform="translate(-115 -69.9)"/><path class="cls-20" d="M463.81,723.68s-202.13,39.9-151.09,92.17S463.81,723.68,463.81,723.68Z" transform="translate(-115 -69.9)"/><path class="cls-5" d="M379.66,768.79S443,742.08,496.85,701.11" transform="translate(-115 -69.9)"/><path class="cls-5" d="M463.81,723.68s-202.13,39.9-151.09,92.17" transform="translate(-115 -69.9)"/><path class="cls-19" d="M444.75,660.49s-87.26-8.63-115.66,33.18S444.75,660.49,444.75,660.49Z" transform="translate(-115 -69.9)"/><path class="cls-8" d="M374.31,680.92s16.77-8,69.78-20.49" transform="translate(-115 -69.9)"/><path class="cls-5" d="M443.49,660.79S356.23,652.16,327.83,694" transform="translate(-115 -69.9)"/><path class="cls-5" d="M373.05,681.22s16.77-8,69.77-20.5" transform="translate(-115 -69.9)"/></g></svg>